<?xml version="1.0" encoding="UTF-8" standalone="no"?>
<!-- Created with Inkscape (http://www.inkscape.org/) -->

<svg
   width="171.733mm"
   height="24.64052mm"
   viewBox="0 0 171.733 24.64052"
   version="1.1"
   id="svg1828"
   inkscape:version="1.1.1 (3bf5ae0d25, 2021-09-20)"
   sodipodi:docname="Logo For Website 2-1.svg"
   xmlns:inkscape="http://www.inkscape.org/namespaces/inkscape"
   xmlns:sodipodi="http://sodipodi.sourceforge.net/DTD/sodipodi-0.dtd"
   xmlns:xlink="http://www.w3.org/1999/xlink"
   xmlns="http://www.w3.org/2000/svg"
   xmlns:svg="http://www.w3.org/2000/svg">
  <sodipodi:namedview
     id="namedview1830"
     pagecolor="#ffffff"
     bordercolor="#666666"
     borderopacity="1.0"
     inkscape:pageshadow="2"
     inkscape:pageopacity="0.0"
     inkscape:pagecheckerboard="0"
     inkscape:document-units="mm"
     showgrid="false"
     inkscape:zoom="0.54520202"
     inkscape:cx="296.22047"
     inkscape:cy="-100.88004"
     inkscape:window-width="1879"
     inkscape:window-height="1028"
     inkscape:window-x="0"
     inkscape:window-y="0"
     inkscape:window-maximized="1"
     inkscape:current-layer="layer1" />
  <defs
     id="defs1825">
    <linearGradient
       inkscape:collect="always"
       xlink:href="#linearGradient20991"
       id="linearGradient47005"
       gradientUnits="userSpaceOnUse"
       x1="153.64062"
       y1="-14.707031"
       x2="97.373383"
       y2="12.367886" />
    <linearGradient
       inkscape:collect="always"
       id="linearGradient20991">
      <stop
         style="stop-color:#ec5e00;stop-opacity:1;"
         offset="0"
         id="stop20987" />
      <stop
         style="stop-color:#ec5e00;stop-opacity:0;"
         offset="1"
         id="stop20989" />
    </linearGradient>
    <linearGradient
       inkscape:collect="always"
       xlink:href="#linearGradient70715"
       id="linearGradient47013"
       gradientUnits="userSpaceOnUse"
       x1="49.921803"
       y1="-16.763315"
       x2="149.39102"
       y2="-16.763315" />
    <linearGradient
       inkscape:collect="always"
       id="linearGradient70715">
      <stop
         style="stop-color:#7f9fd0;stop-opacity:1;"
         offset="0"
         id="stop70711" />
      <stop
         style="stop-color:#7f9fd0;stop-opacity:0;"
         offset="1"
         id="stop70713" />
    </linearGradient>
    <linearGradient
       inkscape:collect="always"
       xlink:href="#linearGradient49948"
       id="linearGradient49954"
       x1="50.110779"
       y1="-5.5559249"
       x2="131.82172"
       y2="-5.5559249"
       gradientUnits="userSpaceOnUse" />
    <linearGradient
       inkscape:collect="always"
       id="linearGradient49948">
      <stop
         style="stop-color:#3ab5f8;stop-opacity:1;"
         offset="0"
         id="stop49944" />
      <stop
         style="stop-color:#3ab5f8;stop-opacity:0;"
         offset="1"
         id="stop49946" />
    </linearGradient>
    <linearGradient
       inkscape:collect="always"
       xlink:href="#linearGradient49948"
       id="linearGradient49952"
       x1="57.956478"
       y1="-23.471167"
       x2="149.32367"
       y2="-23.471167"
       gradientUnits="userSpaceOnUse" />
    <linearGradient
       inkscape:collect="always"
       xlink:href="#linearGradient49948"
       id="linearGradient49950"
       x1="59.54047"
       y1="-39.825241"
       x2="141.07953"
       y2="-39.825241"
       gradientUnits="userSpaceOnUse" />
    <rect
       x="-79.964836"
       y="171.01968"
       width="468.69901"
       height="102.72855"
       id="rect46995" />
    <rect
       x="-79.964836"
       y="171.01968"
       width="468.69901"
       height="102.72855"
       id="rect46997" />
    <linearGradient
       inkscape:collect="always"
       xlink:href="#linearGradient49948"
       id="linearGradient56243"
       x1="23.854944"
       y1="71.898476"
       x2="61.672012"
       y2="71.898476"
       gradientUnits="userSpaceOnUse" />
    <linearGradient
       inkscape:collect="always"
       xlink:href="#linearGradient20991"
       id="linearGradient47017"
       gradientUnits="userSpaceOnUse"
       gradientTransform="matrix(0.50924043,0,0,0.865313,127.90041,7.8968058)"
       x1="-372.36786"
       y1="73.963608"
       x2="-326.87885"
       y2="73.963608" />
    <linearGradient
       inkscape:collect="always"
       xlink:href="#linearGradient20991"
       id="linearGradient2055"
       gradientUnits="userSpaceOnUse"
       x1="153.64062"
       y1="-14.707031"
       x2="97.373383"
       y2="12.367886" />
    <linearGradient
       inkscape:collect="always"
       xlink:href="#linearGradient20991"
       id="linearGradient2057"
       gradientUnits="userSpaceOnUse"
       x1="153.64062"
       y1="-14.707031"
       x2="97.373383"
       y2="12.367886" />
    <linearGradient
       inkscape:collect="always"
       xlink:href="#linearGradient20991"
       id="linearGradient2059"
       gradientUnits="userSpaceOnUse"
       x1="153.64062"
       y1="-14.707031"
       x2="97.373383"
       y2="12.367886" />
  </defs>
  <g
     inkscape:label="Layer 1"
     inkscape:groupmode="layer"
     id="layer1"
     transform="translate(129.05768,-175.00327)">
    <g
       id="g58347"
       transform="translate(-148.19118,83.408358)">
      <g
         id="g46977"
         transform="matrix(0.41294563,0.05141637,-0.05141637,0.41294563,-6.9846481,99.335752)">
        <g
           id="g46967"
           style="fill:url(#linearGradient47005);fill-opacity:1;stroke:none"
           transform="rotate(12.41436,167.65044,32.791737)">
          <path
             id="path46961"
             style="fill:url(#linearGradient2055);fill-opacity:1;stroke:none;stroke-width:0.377953;stroke-linecap:butt;stroke-linejoin:miter;stroke-miterlimit:4;stroke-dasharray:none;stroke-opacity:1"
             d="m 161.48633,-40.693359 a 9.2772417,9.2772417 0 0 0 -9.27735,9.277343 9.2772417,9.2772417 0 0 0 0.86719,3.90625 c -17.31049,12.915319 -25.02468,23.2219912 -64.023436,26.2265629 26.363846,10.0565741 48.996376,-7.2454 68.017576,-21.9999999 a 9.2772417,9.2772417 0 0 0 4.41602,1.144531 9.2772417,9.2772417 0 0 0 9.27734,-9.277344 9.2772417,9.2772417 0 0 0 -9.27734,-9.277343 z m 0,3.769531 a 5.5073724,5.5073724 0 0 1 5.50781,5.507812 5.5073724,5.5073724 0 0 1 -5.50781,5.507813 5.5073724,5.5073724 0 0 1 -5.50781,-5.507813 5.5073724,5.5073724 0 0 1 5.50781,-5.507812 z" />
          <path
             id="path46963"
             style="fill:url(#linearGradient2057);fill-opacity:1;stroke:none;stroke-width:0.377953;stroke-linecap:butt;stroke-linejoin:miter;stroke-miterlimit:4;stroke-dasharray:none;stroke-opacity:1"
             d="m 153.64062,-14.707031 a 9.2772417,9.2772417 0 0 0 -9.27734,9.2773435 9.2772417,9.2772417 0 0 0 0.18555,1.7441406 C 127.13987,9.7239798 110.71079,8.0834836 71.550781,3.8769531 97.98692,13.961103 127.93396,15.083134 147.34961,1.3652344 a 9.2772417,9.2772417 0 0 0 6.29101,2.4804687 9.2772417,9.2772417 0 0 0 9.27735,-9.2753906 9.2772417,9.2772417 0 0 0 -9.27735,-9.2773435 z m 0,3.769531 a 5.5073724,5.5073724 0 0 1 5.50782,5.5078125 5.5073724,5.5073724 0 0 1 -5.50782,5.50585937 5.5073724,5.5073724 0 0 1 -5.50781,-5.50585937 5.5073724,5.5073724 0 0 1 5.50781,-5.5078125 z" />
          <path
             id="path46965"
             style="fill:url(#linearGradient2059);fill-opacity:1;stroke:none;stroke-width:0.377953;stroke-linecap:butt;stroke-linejoin:miter;stroke-miterlimit:4;stroke-dasharray:none;stroke-opacity:1"
             d="m 152.05664,5.4296875 c -5.03717,0.00715 -9.14831,4.0324639 -9.26172,9.0683595 -18.57315,9.601882 -21.99141,2.773783 -62.999998,-3.384766 25.151738,9.594209 46.054708,18.525092 64.623048,8.830078 1.7251,2.523066 4.58224,4.034553 7.63867,4.041016 5.12376,5.4e-5 9.2774,-4.153587 9.27734,-9.277344 6e-5,-5.1237573 -4.15358,-9.2773978 -9.27734,-9.2773435 z m 0,3.7714844 c 3.04122,-2.418e-4 5.50697,2.4646411 5.50781,5.5058591 2.4e-4,3.041981 -2.46583,5.508055 -5.50781,5.507813 -3.04198,2.42e-4 -5.50805,-2.465832 -5.50781,-5.507813 8.4e-4,-3.041218 2.46659,-5.5061009 5.50781,-5.5058591 z"
             sodipodi:nodetypes="cccccccccccc" />
        </g>
        <g
           id="g46975"
           transform="rotate(12.41436,-5.371365,87.709424)"
           style="fill:url(#linearGradient47013);fill-opacity:1;stroke:none">
          <path
             id="path46969"
             style="fill:url(#linearGradient49954);fill-opacity:1;stroke:none;stroke-width:0.377953;stroke-linecap:butt;stroke-linejoin:miter;stroke-miterlimit:4;stroke-dasharray:none;stroke-opacity:1"
             d="m 59.38812,15.645921 a 9.2772417,9.2772417 0 0 0 9.27735,-9.2773434 9.2772417,9.2772417 0 0 0 -0.86719,-3.90625 c 17.310491,-12.9153186 25.024681,-23.2219906 64.02344,-26.2265626 -26.36385,-10.056574 -48.99638,7.2454 -68.01758,21.9999996 a 9.2772417,9.2772417 0 0 0 -4.41602,-1.144531 9.2772417,9.2772417 0 0 0 -9.27734,9.277344 9.2772417,9.2772417 0 0 0 9.27734,9.2773434 z m 0,-3.769531 A 5.5073724,5.5073724 0 0 1 53.88031,6.3685776 5.5073724,5.5073724 0 0 1 59.38812,0.86076457 5.5073724,5.5073724 0 0 1 64.89593,6.3685776 5.5073724,5.5073724 0 0 1 59.38812,11.87639 Z" />
          <path
             id="path46971"
             style="fill:url(#linearGradient49952);fill-opacity:1;stroke:none;stroke-width:0.377953;stroke-linecap:butt;stroke-linejoin:miter;stroke-miterlimit:4;stroke-dasharray:none;stroke-opacity:1"
             d="m 67.23383,-10.340407 a 9.2772417,9.2772417 0 0 0 9.27734,-9.277344 9.2772417,9.2772417 0 0 0 -0.18555,-1.74414 c 17.408961,-13.409527 33.83804,-11.769031 72.99805,-7.5625 -26.43614,-10.08415 -56.383179,-11.206181 -75.79883,2.511718 a 9.2772417,9.2772417 0 0 0 -6.29101,-2.480468 9.2772417,9.2772417 0 0 0 -9.27735,9.27539 9.2772417,9.2772417 0 0 0 9.27735,9.277344 z m 0,-3.769531 a 5.5073724,5.5073724 0 0 1 -5.50782,-5.507813 5.5073724,5.5073724 0 0 1 5.50782,-5.505859 5.5073724,5.5073724 0 0 1 5.50781,5.505859 5.5073724,5.5073724 0 0 1 -5.50781,5.507813 z" />
          <path
             id="path46973"
             style="fill:url(#linearGradient49950);fill-opacity:1;stroke:none;stroke-width:0.377953;stroke-linecap:butt;stroke-linejoin:miter;stroke-miterlimit:4;stroke-dasharray:none;stroke-opacity:1"
             d="m 68.81781,-30.477126 c 5.03717,-0.0071 9.14831,-4.032464 9.26172,-9.068359 18.573151,-9.601882 21.99141,-2.773783 63,3.384766 -25.15174,-9.594209 -46.054709,-18.525092 -64.62305,-8.830078 -1.7251,-2.523066 -4.58224,-4.034553 -7.63867,-4.041016 -5.12376,-5.4e-5 -9.2774,4.153587 -9.27734,9.277344 -6e-5,5.123757 4.15358,9.277398 9.27734,9.277343 z m 0,-3.771484 c -3.04122,2.42e-4 -5.50697,-2.464641 -5.50781,-5.505859 -2.4e-4,-3.041981 2.46583,-5.508055 5.50781,-5.507813 3.04198,-2.42e-4 5.50805,2.465832 5.50781,5.507813 -8.4e-4,3.041218 -2.46659,5.506101 -5.50781,5.505859 z"
             sodipodi:nodetypes="cccccccccccc" />
        </g>
      </g>
      <text
         xml:space="preserve"
         transform="matrix(0.28366643,0,0,0.28366643,99.391339,42.542859)"
         id="text46981"
         style="font-style:normal;font-variant:normal;font-weight:normal;font-stretch:normal;font-size:40px;line-height:1.25;font-family:Ubuntu;-inkscape-font-specification:'Ubuntu, Normal';font-variant-ligatures:normal;font-variant-caps:normal;font-variant-numeric:normal;font-variant-east-asian:normal;white-space:pre;shape-inside:url(#rect46995);fill:#d6d6de;fill-opacity:1;stroke:none"><tspan
           x="-79.964844"
           y="208.31922"
           id="tspan2180">TOTAL TEMPERATURE</tspan></text>
      <text
         xml:space="preserve"
         transform="matrix(0.18911094,0,0,0.18911094,114.18813,74.730184)"
         id="text46985"
         style="font-style:normal;font-variant:normal;font-weight:normal;font-stretch:normal;font-size:40px;line-height:1.25;font-family:Ubuntu;-inkscape-font-specification:'Ubuntu, Normal';font-variant-ligatures:normal;font-variant-caps:normal;font-variant-numeric:normal;font-variant-east-asian:normal;letter-spacing:19.1558px;white-space:pre;shape-inside:url(#rect46997);fill:#dbdbe3;fill-opacity:1;stroke:none"><tspan
           x="-79.964844"
           y="208.31922"
           id="tspan2182">SOLUTIONS</tspan></text>
      <g
         id="g58102"
         transform="matrix(1.8216955,0,0,1.8216955,56.080914,-26.377365)">
        <rect
           style="fill:url(#linearGradient56243);fill-opacity:1;stroke:none;stroke-width:0.128498"
           id="rect46987"
           width="37.81707"
           height="0.70289487"
           x="23.854944"
           y="71.547028" />
        <rect
           style="fill:url(#linearGradient47017);fill-opacity:1;stroke:none;stroke-width:0.102256"
           id="rect46989"
           width="23.086393"
           height="0.72913665"
           x="-61.685127"
           y="71.533905"
           transform="scale(-1,1)" />
      </g>
    </g>
  </g>
</svg>
